<svg id="svg" viewBox="0 0 500 375"><path d="M162.42,-65.73L163.306,-64.603L162.415,-63.77L161.271,-64.455Z" id="city09007" name="city連江縣" class="fill-blue-150" stroke="white" stroke-width="2"></path><path d="M334.302,55.726L330.772,57.124L324.295,64.673L321.531,73.029L324.361,89.862L327.23,92.587L324.239,103.592L319.975,108.439L317.549,119.846L305.236,117.96L298.876,119.141L289.445,115.114L282.6,114.78L277.721,107.754L278.001,107.005L278.768,105.691L280.861,103.516L281.228,103.418L282.931,101.208L283.154,101.213L283.639,100.782L284.035,100.043L284.214,99.823L284.243,99.811L284.861,96.276L285.024,96.071L285.735,94.408L285.731,94.395L285.492,94.029L285.454,93.972L285.172,93.346L291.887,85.46L301.285,80.995L301.657,74.54L316.408,67.887L319.159,63.721L324.361,61.438L323.93,57.913Z" id="city10002" name="city宜蘭縣" class="fill-green-150" stroke="white" stroke-width="2"></path><path d="M202.575,130.193L206.749,131.727L209.181,137.87L216.172,140.197L217.594,147.17L221.956,148.659L219.182,153.498L216.74,165.114L218.616,170.421L207.331,169.081L200.529,166.214L189.622,167.153L181.963,162.772L191.892,148.668L192.586,144.255Z" id="city10007" name="city彰化縣" class="fill-green-150" stroke="white" stroke-width="2"></path><path d="M279.934,128.626L275.143,133.017L274.554,137.014L278.198,141.883L274.714,144.815L273.427,161.1L267.918,171.844L271.046,177.766L268.598,188.143L264.784,189.43L262.824,195.083L255.98,195.912L251.332,203.815L246.292,200.572L235.948,200.409L233.298,194.227L234.615,189.374L226.513,187.122L220.434,187.154L218.616,170.421L216.74,165.114L219.182,153.498L221.956,148.659L229.978,149.133L236.46,138.099L243.008,139.732L249.88,137.871L259.223,131.147L272.259,126.744Z" id="city10008" name="city南投縣" class="fill-green-150" stroke="white" stroke-width="2"></path><path d="M218.616,170.421L220.434,187.154L226.513,187.122L225.386,191.099L219.074,188.767L209.59,188.653L206.322,184.811L197.87,185.585L182.197,197.259L175.46,195.689L173.551,184.036L177.497,173.006L176.431,170.573L181.963,162.772L189.622,167.153L200.529,166.214L207.331,169.081Z" id="city10009" name="city雲林縣" class="fill-green-150" stroke="white" stroke-width="2"></path><path d="M320.119,40.975L315.978,43.654L313.905,49.015L307.219,45.079L305.813,40.061L311.874,37.173L311.899,37.141L311.929,37.084Z" id="city10017" name="city基隆市" class="fill-green-150" stroke="white" stroke-width="2"></path><path d="M299.827,35.097L304.856,45.768L298.975,57.494L292.205,50.697L294.247,47.366L290.631,41.423L293.871,37.447Z" id="city63000" name="city臺北市" class="fill-green-150" stroke="white" stroke-width="2"></path><path d="M299.827,35.097L293.871,37.447L290.631,41.423L294.247,47.366L292.205,50.697L298.975,57.494L304.856,45.768ZM311.929,37.084L311.899,37.141L311.874,37.173L305.813,40.061L307.219,45.079L313.905,49.015L315.978,43.654L320.119,40.975L330.856,43.679L329.88,46.576L334.302,55.726L323.93,57.913L324.361,61.438L319.159,63.721L316.408,67.887L301.657,74.54L301.285,80.995L291.887,85.46L286.95,76.886L286.271,69.926L281.222,69.539L277.714,62.148L279.907,55.801L285.188,54.161L283.698,48.005L274.73,42.748L284.013,39.863L289.504,29.729L300.416,25.282L304.377,27.693L307.234,33.541Z" id="city65000" name="city新北市" class="fill-green-150" stroke="white" stroke-width="2"></path><path d="M289.445,115.114L286.934,120.522L279.934,128.626L272.259,126.744L259.223,131.147L249.88,137.871L243.008,139.732L236.46,138.099L229.978,149.133L221.956,148.659L217.594,147.17L216.172,140.197L209.181,137.87L206.749,131.727L202.575,130.193L208.439,119.798L217.001,107.869L223.118,114.769L235.475,122.221L241.669,122.053L244.383,117.199L250.411,118.248L253.079,121.579L266.601,113.491L270.189,113.294L272.596,108.085L274.162,108.927L274.714,108.825L275.598,108.74L275.646,108.664L277.721,107.754L282.6,114.78Z" id="city66000" name="city臺中市" class="fill-green-150" stroke="white" stroke-width="2"></path><path d="M219.757,223.856L211.123,238.633L202.951,244.787L199.081,253.086L193.6,255.353L177.983,253.528L174.492,245.214L165.167,238.032L169.497,226.141L173.037,212.871L178.326,217.474L182.008,217.068L188.298,209.524L193.235,207.057L200.987,205.91L209.857,214.039L208.982,221.632L211.156,224.517Z" id="city67000" name="city臺南市" class="fill-green-150" stroke="white" stroke-width="2"></path><path d="M274.73,42.748L283.698,48.005L285.188,54.161L279.907,55.801L277.714,62.148L281.222,69.539L286.271,69.926L286.95,76.886L291.887,85.46L285.172,93.346L284.857,93.484L281.879,92.42L281.701,90.342L281.716,90.273L281.886,89.68L281.488,89.305L281.271,89.33L280.753,86.127L279.323,84.55L276.429,83.605L276.431,82.446L276.456,82.194L276.466,82.142L276.314,78.852L276.569,77.461L275.093,76.349L273.681,75.663L273.614,75.42L272.764,74.376L272.575,73.991L270.336,72.967L269.31,73.178L268.295,72.422L268.177,72.621L267.77,72.437L267.153,71.634L265.344,70.355L265.083,70.086L265.041,70.068L263.985,69.749L263.526,68.554L263.887,67.768L263.987,67.487L263.681,66.245L263.664,66.23L263.644,66.206L263.777,65.908L263.685,65.779L262.969,65.525L262.202,65.427L261.831,65.81L261.569,65.669L261.524,65.67L260.218,65.472L259.974,65.405L259.796,65.291L259.632,64.715L259.617,64.244L257.851,64.21L257.536,64.026L257.534,64.018L257.308,63.852L255.063,63.202L255.273,61.926L253.747,59.482L253.648,59.498L253.538,59.558L253.375,59.317L253.268,59.272L252.41,59.546L251.949,59.742L251.48,59.706L251.21,59.624L249.801,59.817L249.176,60.307L248.952,60.017L252.498,52.115L260.909,46.699L272.669,42.188Z" id="city68000" name="city桃園市" class="fill-green-150" stroke="white" stroke-width="2"></path><path d="M250.874,88.328L250.899,88.338L251.324,88.629L253.728,89.94L254.287,90.726L254.489,90.855L255.503,90.575L255.808,90.908L256.538,91.369L256.552,91.393L256.637,91.737L256.574,92.097L257.159,92.804L257.21,93.568L256.717,94.272L256.373,95.111L256.336,95.23L255.954,96.167L255.527,96.579L255.129,96.327L255.296,96.714L256.398,97.395L256.794,98.884L256.298,101.971L256.272,102.201L257.74,102.239L260.596,101.314L263.031,101.468L264.829,101.804L269.291,102.464L269.425,102.613L270.37,103.347L270.477,103.344L271.333,104.929L272.596,107.827L272.596,108.085L270.189,113.294L266.601,113.491L253.079,121.579L250.411,118.248L244.383,117.199L241.669,122.053L235.475,122.221L223.118,114.769L217.001,107.869L222.483,100.092L225.199,92.456L231.551,86.117L240.588,79.783L240.626,79.8L240.635,79.803L242.401,80.095L242.479,81.29L243.01,81.326L245.91,82.355L246.61,82.05L247.643,82.71L247.725,83.1L247.31,84.44L248.004,85.48L248.506,85.81L248.751,86.244L249.039,86.5L250.044,87.284L250.713,87.187L250.947,87.313L250.937,87.387L250.93,87.429L250.802,87.602L250.779,87.998Z" id="city10005" name="city苗栗縣" class="fill-blue-150" stroke="white" stroke-width="2"></path><path d="M201.792,195.94L207.173,200.064L201.093,203.421L197.067,199.347Z" id="city10020" name="city嘉義市" class="fill-green-150" stroke="white" stroke-width="2"></path><path d="M201.792,195.94L197.067,199.347L201.093,203.421L207.173,200.064ZM226.513,187.122L234.615,189.374L233.298,194.227L235.948,200.409L246.292,200.572L236.838,205.33L235.036,209.564L223.254,218.157L219.757,223.856L211.156,224.517L208.982,221.632L209.857,214.039L200.987,205.91L193.235,207.057L188.298,209.524L182.008,217.068L178.326,217.474L173.037,212.871L176.502,208.534L175.46,195.689L182.197,197.259L197.87,185.585L206.322,184.811L209.59,188.653L219.074,188.767L225.386,191.099Z" id="city10010" name="city嘉義縣" class="fill-green-150" stroke="white" stroke-width="2"></path><path d="M24.093,99.061L29.756,106.623L27.997,110.025L21.869,108.363L14.135,112.156L15.965,102.8L19.888,104.86Z" id="city09020" name="city金門縣" class="fill-blue-150" stroke="white" stroke-width="2"></path><path d="M251.332,203.815L248.962,209.971L254.203,214.228L252.472,216.961L242.623,222.624L237.84,244.397L234.373,248.862L238.181,260.028L234.55,257.884L230.689,260.774L227.545,257.143L221.789,258.686L219.023,256.041L211.097,261.378L203.641,261.203L200.837,276.878L201.367,286.587L199.773,295.429L190.819,289.849L185.752,282.845L185.098,271.933L177.983,253.528L193.6,255.353L199.081,253.086L202.951,244.787L211.123,238.633L219.757,223.856L223.254,218.157L235.036,209.564L236.838,205.33L246.292,200.572Z" id="city64000" name="city高雄市" class="fill-green-150" stroke="white" stroke-width="2"></path><path d="M293.292,203.872L290.32,215.497L284.744,225.43L285.88,233.402L280.987,237.607L277.619,246.94L270.606,257.678L266.711,259.404L267.54,264.482L261.18,271.738L251.945,278.372L240.829,308.083L240.95,316.405L238.366,317.972L232.389,313.573L231.243,307.058L227.967,304.616L231.643,300.251L228.324,296.403L227.266,287.614L232.344,274.601L239.835,271.955L241.562,264.125L238.181,260.028L234.373,248.862L237.84,244.397L242.623,222.624L252.472,216.961L257.299,223.056L266.537,225.833L268.506,231.385L273.067,235.293L277.573,234.684L282.838,217.091L285.759,212.322L284.907,208.589L288.925,203.042Z" id="city10014" name="city臺東縣" class="fill-blue-150" stroke="white" stroke-width="2"></path><path d="M317.549,119.846L314.935,125.014L308.658,130.326L307.923,137.143L304.029,141.439L306.54,149.146L303.396,156.367L299.956,173.228L293.945,196.011L293.292,203.872L288.925,203.042L284.907,208.589L285.759,212.322L282.838,217.091L277.573,234.684L273.067,235.293L268.506,231.385L266.537,225.833L257.299,223.056L252.472,216.961L254.203,214.228L248.962,209.971L251.332,203.815L255.98,195.912L262.824,195.083L264.784,189.43L268.598,188.143L271.046,177.766L267.918,171.844L273.427,161.1L274.714,144.815L278.198,141.883L274.554,137.014L275.143,133.017L279.934,128.626L286.934,120.522L289.445,115.114L298.876,119.141L305.236,117.96Z" id="city10015" name="city花蓮縣" class="fill-blue-150" stroke="white" stroke-width="2"></path><path d="M126.456,180.857L128.98,187.961L134.855,189.556L128.961,194.146Z" id="city10016" name="city澎湖縣" class="fill-green-150" stroke="white" stroke-width="2"></path><path d="M244.364,81.738L243.01,81.326L242.479,81.29L242.401,80.095L240.635,79.803L240.626,79.8L240.588,79.783L240.584,74.114L243.474,68.068L251.584,72.632L245.3,78.598Z" id="city10018" name="city新竹市" class="fill-green-150" stroke="white" stroke-width="2"></path><path d="M253.375,59.317L253.538,59.558L253.648,59.498L253.747,59.482L255.273,61.926L255.063,63.202L257.308,63.852L257.534,64.018L257.536,64.026L257.851,64.21L259.617,64.244L259.632,64.715L259.796,65.291L259.974,65.405L260.218,65.472L261.524,65.67L261.569,65.669L261.831,65.81L262.202,65.427L262.969,65.525L263.685,65.779L263.777,65.908L263.644,66.206L263.664,66.23L263.681,66.245L263.987,67.487L263.887,67.768L263.526,68.554L263.985,69.749L265.041,70.068L265.083,70.086L265.344,70.355L267.153,71.634L267.77,72.437L268.177,72.621L268.295,72.422L269.31,73.178L270.336,72.967L272.575,73.991L272.764,74.376L273.614,75.42L273.681,75.663L275.093,76.349L276.569,77.461L276.314,78.852L276.466,82.142L276.456,82.194L276.431,82.446L276.429,83.605L279.323,84.55L280.753,86.127L281.271,89.33L281.488,89.305L281.886,89.68L281.716,90.273L281.701,90.342L281.879,92.42L284.857,93.484L285.454,93.972L285.492,94.029L285.731,94.395L285.735,94.408L285.024,96.071L284.861,96.276L284.243,99.811L284.214,99.823L284.035,100.043L283.639,100.782L283.154,101.213L282.931,101.208L281.228,103.418L280.861,103.516L278.768,105.691L278.001,107.005L277.721,107.754L275.646,108.664L275.598,108.74L274.714,108.825L274.162,108.927L272.596,107.827L271.333,104.929L270.477,103.344L270.37,103.347L269.425,102.613L269.291,102.464L264.829,101.804L263.031,101.468L260.596,101.314L257.74,102.239L256.272,102.201L256.298,101.971L256.794,98.884L256.398,97.395L255.296,96.714L255.129,96.327L255.527,96.579L255.954,96.167L256.336,95.23L256.373,95.111L256.717,94.272L257.21,93.568L257.159,92.804L256.574,92.097L256.637,91.737L256.552,91.393L256.538,91.369L255.808,90.908L255.503,90.575L254.489,90.855L254.287,90.726L253.728,89.94L251.324,88.629L250.899,88.338L250.874,88.328L250.779,87.998L250.802,87.602L250.93,87.429L250.937,87.387L250.947,87.313L250.713,87.187L250.044,87.284L249.039,86.5L248.751,86.244L248.506,85.81L248.004,85.48L247.31,84.44L247.725,83.1L247.643,82.71L246.61,82.05L245.91,82.355L244.364,81.738L245.3,78.598L251.584,72.632L243.474,68.068L248.952,60.017L249.176,60.307L249.801,59.817L251.21,59.624L251.48,59.706L251.949,59.742L252.41,59.546L253.268,59.272Z" id="city10004" name="city新竹縣" class="fill-blue-150" stroke="white" stroke-width="2"></path><path d="M238.181,260.028L241.562,264.125L239.835,271.955L232.344,274.601L227.266,287.614L228.324,296.403L231.643,300.251L227.967,304.616L231.243,307.058L232.389,313.573L238.366,317.972L240.95,316.405L240.214,327.067L241.38,336.383L236.567,340.917L234.486,345.795L228.048,344.374L222.532,337.369L225.291,330.839L218.251,310.147L213.835,304.806L199.773,295.429L201.367,286.587L200.837,276.878L203.641,261.203L211.097,261.378L219.023,256.041L221.789,258.686L227.545,257.143L230.689,260.774L234.55,257.884Z" id="city10013" name="city屏東縣" class="fill-green-150" stroke="white" stroke-width="2"></path><text x="162.3317247664411" y="-64.67313510044302" text-anchor="middle" alignment-baseline="middle" class="text-base font-bold font-inter w-[28px] h-[20px] outlined-text  text-white" style="fill: white;">連江縣</text><text x="306.0282296779136" y="95.5521300577267" text-anchor="middle" alignment-baseline="middle" class="text-base font-bold font-inter w-[28px] h-[20px] outlined-text  text-white" style="fill: white;">宜蘭縣</text><text x="203.64940582739416" y="153.07594056199076" text-anchor="middle" alignment-baseline="middle" class="text-base font-bold font-inter w-[28px] h-[20px] outlined-text  text-white" style="fill: white;">彰化縣</text><text x="248.3009025291324" y="165.01874957370714" text-anchor="middle" alignment-baseline="middle" class="text-base font-bold font-inter w-[28px] h-[20px] outlined-text  text-white" style="fill: white;">南投縣</text><text x="195.38876302651954" y="179.42694630672136" text-anchor="middle" alignment-baseline="middle" class="text-base font-bold font-inter w-[28px] h-[20px] outlined-text  text-white" style="fill: white;">雲林縣</text><text x="312.12613154731645" y="42.398181278356056" text-anchor="middle" alignment-baseline="middle" class="text-base font-bold font-inter w-[28px] h-[20px] outlined-text  text-white" style="fill: white;">基隆市</text><text x="297.8896090463974" y="45.478710642605286" text-anchor="middle" alignment-baseline="middle" class="text-base font-bold font-inter w-[28px] h-[20px] outlined-text  text-white" style="fill: white;">臺北市</text><text x="301.7039799019897" y="55.36908761599486" text-anchor="middle" alignment-baseline="middle" class="text-base font-bold font-inter w-[28px] h-[20px] outlined-text  text-white" style="fill: white;">新北市</text><text x="240.53500885297095" y="127.12095692573187" text-anchor="middle" alignment-baseline="middle" class="text-base font-bold font-inter w-[28px] h-[20px] outlined-text  text-white" style="fill: white;">臺中市</text><text x="191.02657264847906" y="231.01673345710591" text-anchor="middle" alignment-baseline="middle" class="text-base font-bold font-inter w-[28px] h-[20px] outlined-text  text-white" style="fill: white;">臺南市</text><text x="272.44675419769675" y="63.312566043273684" text-anchor="middle" alignment-baseline="middle" class="text-base font-bold font-inter w-[28px] h-[20px] outlined-text  text-white" style="fill: white;">桃園市</text><text x="242.98764061026773" y="103.6653837408237" text-anchor="middle" alignment-baseline="middle" class="text-base font-bold font-inter w-[28px] h-[20px] outlined-text  text-white" style="fill: white;">苗栗縣</text><text x="201.89344241579332" y="199.70473584385212" text-anchor="middle" alignment-baseline="middle" class="text-base font-bold font-inter w-[28px] h-[20px] outlined-text  text-white" style="fill: white;">嘉義市</text><text x="208.66796946899862" y="202.69143857208195" text-anchor="middle" alignment-baseline="middle" class="text-base font-bold font-inter w-[28px] h-[20px] outlined-text  text-white" style="fill: white;">嘉義縣</text><text x="21.995772788475346" y="106.12146634932232" text-anchor="middle" alignment-baseline="middle" class="text-base font-bold font-inter w-[28px] h-[20px] outlined-text  text-white" style="fill: white;">金門縣</text><text x="216.7406924620797" y="245.83785441435748" text-anchor="middle" alignment-baseline="middle" class="text-base font-bold font-inter w-[28px] h-[20px] outlined-text  text-white" style="fill: white;">高雄市</text><text x="253.11190680421805" y="256.9102579977193" text-anchor="middle" alignment-baseline="middle" class="text-base font-bold font-inter w-[28px] h-[20px] outlined-text  text-white" style="fill: white;">臺東縣</text><text x="282.9317632259398" y="173.64819866672144" text-anchor="middle" alignment-baseline="middle" class="text-base font-bold font-inter w-[28px] h-[20px] outlined-text  text-white" style="fill: white;">花蓮縣</text><text x="130.08650788948754" y="189.6787573316343" text-anchor="middle" alignment-baseline="middle" class="text-base font-bold font-inter w-[28px] h-[20px] outlined-text  text-white" style="fill: white;">澎湖縣</text><text x="244.77326475578673" y="74.56044057747116" text-anchor="middle" alignment-baseline="middle" class="text-base font-bold font-inter w-[28px] h-[20px] outlined-text  text-white" style="fill: white;">新竹市</text><text x="264.17951644275917" y="84.77459456024026" text-anchor="middle" alignment-baseline="middle" class="text-base font-bold font-inter w-[28px] h-[20px] outlined-text  text-white" style="fill: white;">新竹縣</text><text x="221.81231321756167" y="293.4890471270084" text-anchor="middle" alignment-baseline="middle" class="text-base font-bold font-inter w-[28px] h-[20px] outlined-text  text-white" style="fill: white;">屏東縣</text></svg>